# xmcd
#
# Track frame offsets: 
#        150
#        18571
#        44446
#        67697
#        84438
#        93820
#        138515
#        162727
#        187349
#        212281
#        237085
#        256626
#
# Disc length: 3522 seconds
#
# Revision: 0
# Processed by: cddbd v1.5.2PL0 Copyright (c) Steve Scherf et al.
# Submitted via: ExactAudioCopyFreeDBPlugin 1.0
#
DISCID=980dc00c
DTITLE=Norbert Galo and Friends - All Blues
DYEAR=2019
DGENRE=
TTITLE0=Delat to Delta
TTITLE1=Elysian Blues
TTITLE2=Ces gens là
TTITLE3=Crossroad Blues
TTITLE4=Flying Mermaid
TTITLE5=All Blues
TTITLE6=Help the Poor
TTITLE7=Her Voice
TTITLE8=Mercy Mercy
TTITLE9=One Step Up
TTITLE10=A Few Miles
TTITLE11=Cantina Band
EXTD=
EXTT0=
EXTT1=
EXTT2=
EXTT3=
EXTT4=
EXTT5=
EXTT6=
EXTT7=
EXTT8=
EXTT9=
EXTT10=
EXTT11=
PLAYORDER=
